<svg height="511pt" viewBox="0 0 511.9993 511" width="511pt" xmlns="http://www.w3.org/2000/svg" xmlns:xlink="http://www.w3.org/1999/xlink"><linearGradient id="a" gradientTransform="matrix(.789334 .615472 -.615472 .789334 238.443607 -85.537134)" gradientUnits="userSpaceOnUse" x1="125.9265" x2="525.6874" y1="259.1129" y2="308.8007"><stop offset="0" stop-color="#a4508b"/><stop offset="1" stop-color="#701da0"/></linearGradient><linearGradient id="b"><stop offset="0" stop-color="#701da0" stop-opacity="0"/><stop offset="1" stop-color="#2f004e"/></linearGradient><linearGradient id="c" gradientTransform="matrix(.768514 .599257 -.615472 .789334 -237.172267 437.18093)" gradientUnits="userSpaceOnUse" x1="282.1623" x2="278.716" xlink:href="#b" y1="-287.7529" y2="-234.3349"/><linearGradient id="d" gradientTransform="matrix(.753601 .658812 -.658812 .753601 -170.467252 308.863936)" gradientUnits="userSpaceOnUse" x1="369.0228" x2="365.4378" xlink:href="#b" y1="-369.78" y2="-314.2139"/><linearGradient id="e" gradientTransform="matrix(.675228 .428699 -.536499 .844986 -315.861624 296.342995)" gradientUnits="userSpaceOnUse" x1="607.2834" x2="603.6982" xlink:href="#b" y1="-238.9096" y2="-183.3396"/><linearGradient id="f" gradientTransform="matrix(.789334 .615472 -.615472 .789334 238.443607 -85.537134)" gradientUnits="userSpaceOnUse" x1="328.0606" x2="211.7428" xlink:href="#b" y1="152.7415" y2="-49.5185"/><linearGradient id="g"><stop offset="0" stop-color="#acc130"/><stop offset="1" stop-color="#97a03b"/></linearGradient><linearGradient id="h" gradientTransform="matrix(.929864 .370344 -.370344 .929864 177.428882 -34.392385)" gradientUnits="userSpaceOnUse" x1="279.903" x2="321.1353" xlink:href="#g" y1="-35.6721" y2="-35.1072"/><linearGradient id="i" gradientTransform="matrix(.789334 .615472 -.615472 .789334 238.443607 -85.537134)" gradientUnits="userSpaceOnUse" x1="252.6344" x2="293.6992" xlink:href="#g" y1="26.19" y2="15.8"/><linearGradient id="j" gradientTransform="matrix(.789334 .615472 -.615472 .789334 238.443607 -85.537134)" gradientUnits="userSpaceOnUse" x1="199.2155" x2="235.7303" xlink:href="#g" y1="6.9529" y2="31.9723"/><linearGradient id="k" gradientTransform="matrix(-.905542 -.426497 -.426497 .905542 636.754612 171.526154)" gradientUnits="userSpaceOnUse" x1="146.2715" x2="182.7846" xlink:href="#g" y1="2.4713" y2="27.4896"/><path d="m437.417969 69.082031c-28.726563-12.660156-62.351563-7.167969-85.957031 13.523438-6.320313 5.542969-44.007813 41.117187-50.417969 45.691406-132.5 94.566406-208 29.90625-278.648438 141.441406-70.644531 111.535157 34.714844 276.445313 191.84375 234.578125 111.191407-29.625 214.964844-206.527344 267.8125-325.203125 17.328125-38.910156 2.273438-84.785156-35.050781-105.300781-3.195312-1.753906-6.398438-3.324219-9.582031-4.730469zm0 0" fill="url(#a)"/><path d="m71.269531 325.5625c15.246094 7.582031 29.84375 16.289062 44.195313 25.492188 7.121094 4.671874 14.183594 9.46875 21.113281 14.488281 6.863281 5.097656 13.644531 10.34375 20.273437 15.828125 6.574219 5.542968 13.371094 10.929687 19.832032 16.796875 6.429687 5.902343 12.246094 12.535156 17.167968 19.910156 4.898438 7.394531 9.082032 15.414063 12.140626 23.949219 2.992187 8.523437 4.953124 17.6875 4.203124 26.90625l-2.007812.558594c-4.957031-7.308594-9.882812-13.789063-15.046875-20.074219-5.140625-6.273438-10.414063-12.3125-15.792969-18.316407-5.429687-5.96875-10.660156-12.109374-15.734375-18.550781-5.121093-6.402343-10.371093-12.824219-16.144531-18.765625-5.75-5.964844-11.71875-11.761718-17.8125-17.449218-6.023438-5.773438-12.234375-11.378907-18.550781-16.890626-12.570313-11.09375-25.601563-21.777343-38.945313-32.09375zm0 0" fill="url(#c)"/><path d="m287.789062 231.023438c11.648438 5.671874 22.550782 12.402343 33.160157 19.59375 5.246093 3.660156 10.421875 7.441406 15.445312 11.433593 4.953125 4.0625 9.8125 8.265625 14.5 12.695313 4.628907 4.488281 9.476563 8.816406 13.957031 13.597656 4.445313 4.816406 8.242188 10.339844 11.160157 16.589844 2.886719 6.265625 5.0625 13.152344 6.191406 20.582031 1.074219 7.421875 1.164063 15.496094-1.0625 23.820313l-1.800781.652343c-2.953125-6.1875-6.023438-11.636719-9.328125-16.894531-3.289063-5.246094-6.726563-10.273438-10.265625-15.257812-3.585938-4.953126-6.972656-10.074219-10.175782-15.472657-3.246093-5.367187-6.601562-10.738281-10.484374-15.640625-3.859376-4.921875-7.929688-9.679687-12.128907-14.332031-4.125-4.734375-8.4375-9.300781-12.851562-13.777344-8.769531-9.019531-18.003907-17.636719-27.5625-25.902343zm0 0" fill="url(#d)"/><path d="m166.039062 330.800781c10.257813 2.488281 19.914063 6.121094 29.335938 10.246094 4.664062 2.136719 9.269531 4.398437 13.753906 6.890625 4.429688 2.574219 8.78125 5.296875 12.996094 8.265625 4.164062 3.039063 8.511719 5.878906 12.5625 9.222656 4.023438 3.382813 7.515625 7.566407 10.277344 12.621094 2.738281 5.074219 4.890625 10.886719 6.160156 17.4375 1.226562 6.5625 1.632812 13.949219.054688 22.105469l-1.527344 1.015625c-2.792969-4.988281-5.652344-9.273438-8.710938-13.324219-3.042968-4.046875-6.207031-7.855469-9.453125-11.609375-3.285156-3.707031-6.410156-7.613281-9.382812-11.824219-3.011719-4.164062-6.121094-8.308594-9.660157-11.902344-3.519531-3.617187-7.21875-7.03125-11.019531-10.324218-3.742187-3.378906-7.636719-6.5625-11.617187-9.640625-7.914063-6.230469-16.210938-11.984375-24.773438-17.339844zm0 0" fill="url(#e)"/><path d="m482.050781 179.113281c17.324219-38.910156 2.273438-84.785156-35.054687-105.300781-3.191406-1.753906-6.394532-3.328125-9.582032-4.730469-28.722656-12.660156-62.351562-7.167969-85.953124 13.523438l33.585937 271.449219c39.863281-57.769532 73.480469-122.121094 97.003906-174.941407zm0 0" fill="url(#f)"/><path d="m474.253906 89.355469-54.363281-21.652344 19.425781-48.765625c5.976563-15.011719 22.992188-22.332031 38.003906-16.355469 15.011719 5.980469 22.335938 22.996094 16.355469 38.007813zm0 0" fill="url(#h)"/><path d="m457.347656 57.050781c5.828125 20.332031 25.742188 44.621094-34.535156 82.667969-3.628906 2.292969-8.460938.375-9.417969-3.808594-5.25-22.859375-23.222656-52.078125 35.023438-82.589844 3.511719-1.839843 7.835937-.082031 8.929687 3.730469zm0 0" fill="url(#i)"/><path d="m461.023438 53.816406c-18.285157-10.628906-74.226563-36.109375-125.875 13.015625-3.109376 2.957031-2.4375 8.109375 1.382812 10.066407 20.878906 10.6875 82.078125 35.492187 125.917969-13.507813 2.648437-2.957031 2.003906-7.582031-1.425781-9.574219zm0 0" fill="url(#j)"/><path d="m461.78125 54.34375c17.738281 11.519531 65.726562 49.9375 45.207031 118.199219-1.234375 4.109375-6.136719 5.832031-9.605469 3.308593-18.964843-13.808593-68.71875-57.21875-44.789062-118.457031 1.445312-3.695312 5.859375-5.210937 9.1875-3.050781zm0 0" fill="url(#k)"/></svg>