<svg id="Layer_3" enable-background="new 0 0 64 64" height="512" viewBox="0 0 64 64" width="512" xmlns="http://www.w3.org/2000/svg"><g><path d="m2 2h60v60h-60z" fill="#f5f4f1"/><path d="m49 30-4 18h-22l-4-18z" fill="#b3b3b3"/><path d="m22.741 46.834c11.352-1.134 20.246-8.132 21.172-16.834h-24.913z" fill="#c2c2c2"/><path d="m2 2h60v16h-60z" fill="#6ec1ed"/><g fill="#fff"><circle cx="56" cy="10" r="2"/><circle cx="48" cy="10" r="2"/><circle cx="40" cy="10" r="2"/></g><circle cx="27" cy="55" fill="#c6c6c6" r="3"/><circle cx="42" cy="55" fill="#c6c6c6" r="3"/><circle cx="47" cy="28" fill="#ed634a" r="6"/><path d="m31 30h6v18h-6z" fill="#c6c6c6"/><path d="m37 41.428v-11.428h-6v14.823c2.228-.896 4.249-2.044 6-3.395z" fill="#d1d1d1"/><g><path d="m62 1h-60c-.553 0-1 .448-1 1v60c0 .552.447 1 1 1h60c.553 0 1-.448 1-1v-60c0-.552-.447-1-1-1zm-1 2v14h-58v-14zm-58 58v-42h58v42z"/><path d="m56 13c1.654 0 3-1.346 3-3s-1.346-3-3-3-3 1.346-3 3 1.346 3 3 3zm0-4c.552 0 1 .449 1 1s-.448 1-1 1-1-.449-1-1 .448-1 1-1z"/><path d="m48 13c1.654 0 3-1.346 3-3s-1.346-3-3-3-3 1.346-3 3 1.346 3 3 3zm0-4c.552 0 1 .449 1 1s-.448 1-1 1-1-.449-1-1 .448-1 1-1z"/><path d="m40 13c1.654 0 3-1.346 3-3s-1.346-3-3-3-3 1.346-3 3 1.346 3 3 3zm0-4c.552 0 1 .449 1 1s-.448 1-1 1-1-.449-1-1 .448-1 1-1z"/><path d="m20.806 51-4.828-22.212c-.101-.46-.507-.788-.978-.788h-8v2h7.194l4.828 22.212c.101.46.507.788.978.788h3.556c-.344.591-.556 1.268-.556 2 0 2.206 1.794 4 4 4s4-1.794 4-4c0-.732-.212-1.409-.556-2h8.113c-.345.591-.557 1.268-.557 2 0 2.206 1.794 4 4 4s4-1.794 4-4c0-.732-.212-1.409-.556-2h2.556v-2zm8.194 4c0 1.103-.897 2-2 2s-2-.897-2-2 .897-2 2-2 2 .897 2 2zm15 0c0 1.103-.897 2-2 2s-2-.897-2-2 .897-2 2-2 2 .897 2 2z"/><path d="m47 21c-3.859 0-7 3.14-7 7 0 .34.033.672.08 1h-21.08c-.304 0-.59.138-.78.375-.189.236-.262.546-.196.842l4 18c.102.457.507.783.976.783h22c.469 0 .874-.326.977-.783l3.002-13.506c2.898-.856 5.021-3.539 5.021-6.711 0-3.86-3.141-7-7-7zm-11 10v16h-4v-16zm-15.753 0h9.753v16h-6.198zm23.951 16h-6.198v-16h2.685c1.108 2.322 3.453 3.941 6.181 3.993zm2.802-14c-2.757 0-5-2.243-5-5s2.243-5 5-5 5 2.243 5 5-2.243 5-5 5z"/><path d="m48 25h-2v2h-2v2h2v2h2v-2h2v-2h-2z"/></g></g></svg>